<svg width="89" height="14" viewBox="0 0 89 14" fill="none" xmlns="http://www.w3.org/2000/svg">
<path d="M2.085 3.69002H1.92V10.65H1.04308e-07V0.180024H2.7L5.085 7.14002H5.25V0.180024H7.17V10.65H4.47L2.085 3.69002ZM12.4141 10.83C11.5341 10.83 10.7691 10.685 10.1191 10.395C9.46914 10.105 8.94414 9.71002 8.54414 9.21002L9.84914 7.77002C10.2291 8.19002 10.6441 8.50002 11.0941 8.70002C11.5541 8.90002 12.0191 9.00002 12.4891 9.00002C13.0291 9.00002 13.4391 8.88002 13.7191 8.64002C13.9991 8.40002 14.1391 8.05502 14.1391 7.60502C14.1391 7.23502 14.0291 6.95502 13.8091 6.76502C13.5991 6.57502 13.2391 6.44002 12.7291 6.36002L11.6341 6.18002C10.6941 6.02002 10.0141 5.67502 9.59414 5.14502C9.17414 4.60502 8.96414 3.95002 8.96414 3.18002C8.96414 2.17002 9.29414 1.39002 9.95414 0.840024C10.6141 0.280024 11.5391 2.38419e-05 12.7291 2.38419e-05C13.5391 2.38419e-05 14.2441 0.125024 14.8441 0.375023C15.4441 0.625024 15.9291 0.965024 16.2991 1.39502L15.0241 2.82002C14.7441 2.51002 14.4141 2.27002 14.0341 2.10002C13.6541 1.92002 13.2241 1.83002 12.7441 1.83002C11.7341 1.83002 11.2291 2.24502 11.2291 3.07502C11.2291 3.43502 11.3391 3.70502 11.5591 3.88502C11.7891 4.06502 12.1591 4.20002 12.6691 4.29002L13.7641 4.48502C14.6141 4.63502 15.2691 4.95502 15.7291 5.44502C16.1891 5.93502 16.4191 6.59502 16.4191 7.42502C16.4191 7.91502 16.3341 8.37002 16.1641 8.79002C15.9941 9.20002 15.7391 9.56002 15.3991 9.87002C15.0591 10.17 14.6391 10.405 14.1391 10.575C13.6491 10.745 13.0741 10.83 12.4141 10.83ZM22.8933 6.27002H20.2533V10.65H17.9883V0.180024H20.2533V4.42502H22.8933V0.180024H25.1583V10.65H22.8933V6.27002ZM41.7516 12.345H40.1766C39.3466 12.345 38.6416 12.215 38.0616 11.955C37.4816 11.695 37.0116 11.305 36.6516 10.785C36.2916 10.265 36.0316 9.61502 35.8716 8.83502C35.7116 8.04502 35.6316 7.12502 35.6316 6.07502C35.6316 4.93502 35.7166 3.98002 35.8866 3.21002C36.0666 2.43002 36.3216 1.80502 36.6516 1.33502C36.9916 0.855024 37.4066 0.515024 37.8966 0.315024C38.3866 0.105024 38.9466 2.38419e-05 39.5766 2.38419e-05C40.2266 2.38419e-05 40.7866 0.0950238 41.2566 0.285024C41.7366 0.475024 42.1316 0.740024 42.4416 1.08002C42.7516 1.41002 42.9816 1.80002 43.1316 2.25002C43.2816 2.70002 43.3566 3.18502 43.3566 3.70502V9.28502H41.7516V8.37002H41.6466C41.5366 8.74002 41.3616 9.01502 41.1216 9.19502C40.8816 9.37502 40.5866 9.46502 40.2366 9.46502C39.6466 9.46502 39.1866 9.21002 38.8566 8.70002C38.5366 8.18002 38.3766 7.36002 38.3766 6.24002C38.3766 5.12002 38.5366 4.30502 38.8566 3.79502C39.1866 3.27502 39.6466 3.01502 40.2366 3.01502C40.5866 3.01502 40.8816 3.10502 41.1216 3.28502C41.3616 3.46502 41.5366 3.74002 41.6466 4.11002H41.7516V3.70502C41.7516 3.28502 41.7016 2.93002 41.6016 2.64002C41.5016 2.35002 41.3566 2.11502 41.1666 1.93502C40.9866 1.75502 40.7666 1.62502 40.5066 1.54502C40.2566 1.46502 39.9766 1.42502 39.6666 1.42502C39.2966 1.42502 38.9666 1.48502 38.6766 1.60502C38.3866 1.72502 38.1366 1.93002 37.9266 2.22002C37.7266 2.51002 37.5716 2.90502 37.4616 3.40502C37.3616 3.90502 37.3116 4.53002 37.3116 5.28002V7.21502C37.3116 7.79502 37.3616 8.31502 37.4616 8.77502C37.5716 9.23502 37.7416 9.62502 37.9716 9.94502C38.2016 10.255 38.4966 10.49 38.8566 10.65C39.2166 10.82 39.6566 10.905 40.1766 10.905H41.7516V12.345ZM40.8966 8.17502C41.1766 8.17502 41.3866 8.09502 41.5266 7.93502C41.6766 7.77502 41.7516 7.56002 41.7516 7.29002V5.19002C41.7516 4.92002 41.6766 4.70502 41.5266 4.54502C41.3866 4.38502 41.1766 4.30502 40.8966 4.30502C40.6266 4.30502 40.4166 4.40502 40.2666 4.60502C40.1266 4.80502 40.0566 5.18502 40.0566 5.74502V6.73502C40.0566 7.29502 40.1266 7.67502 40.2666 7.87502C40.4166 8.07502 40.6266 8.17502 40.8966 8.17502Z" fill="white"/>
<path d="M80.9323 13.53V11.715H88.1323V13.53H80.9323Z" fill="#00FF66"/>
<path d="M56.4098 10.65H54.1898V0.180024H58.2398C58.7498 0.180024 59.2048 0.260024 59.6048 0.420024C60.0048 0.570024 60.3398 0.790024 60.6098 1.08002C60.8898 1.37002 61.0998 1.72002 61.2398 2.13002C61.3798 2.54002 61.4498 3.00002 61.4498 3.51002C61.4498 4.25002 61.2898 4.88502 60.9698 5.41502C60.6498 5.94502 60.1948 6.29502 59.6048 6.46502L61.6598 10.65H59.1998L57.4448 6.76502H56.4098V10.65ZM57.6998 5.02502C58.2298 5.02502 58.5948 4.92502 58.7948 4.72502C59.0048 4.52502 59.1098 4.19502 59.1098 3.73502V3.28502C59.1098 2.82502 59.0048 2.49502 58.7948 2.29502C58.5948 2.09502 58.2298 1.99502 57.6998 1.99502H56.4098V5.02502H57.6998ZM63.184 10.65V0.180024H67.234C67.744 0.180024 68.199 0.260024 68.599 0.420024C68.999 0.570024 69.334 0.790024 69.604 1.08002C69.884 1.37002 70.094 1.72002 70.234 2.13002C70.374 2.54002 70.444 3.00002 70.444 3.51002C70.444 4.02002 70.374 4.48002 70.234 4.89002C70.094 5.30002 69.884 5.65002 69.604 5.94002C69.334 6.23002 68.999 6.45502 68.599 6.61502C68.199 6.76502 67.744 6.84002 67.234 6.84002H65.449V10.65H63.184ZM65.449 5.02502H66.664C67.194 5.02502 67.559 4.92502 67.759 4.72502C67.969 4.52502 68.074 4.19502 68.074 3.73502V3.28502C68.074 2.82502 67.969 2.49502 67.759 2.29502C67.559 2.09502 67.194 1.99502 66.664 1.99502H65.449V5.02502ZM72.1631 10.65V8.98502H74.4131V1.84502H72.1631V0.180024H78.9131V1.84502H76.6631V8.98502H78.9131V10.65H72.1631Z" fill="#D6001C"/>
</svg>
